<mxfile host="app.diagrams.net" modified="2021-09-18T07:21:23.148Z" agent="5.0 (Windows NT 10.0; Win64; x64) AppleWebKit/537.36 (KHTML, like Gecko) Chrome/93.0.4577.82 Safari/537.36" etag="eUfGAN1i78zSaxizNjsQ" version="15.2.9" type="github">
  <diagram id="R2lEEEUBdFMjLlhIrx00" name="Page-1">
    <mxGraphModel dx="1422" dy="834" grid="1" gridSize="10" guides="1" tooltips="1" connect="1" arrows="1" fold="1" page="1" pageScale="1" pageWidth="850" pageHeight="1100" math="0" shadow="0" extFonts="Permanent Marker^https://fonts.googleapis.com/css?family=Permanent+Marker">
      <root>
        <mxCell id="0" />
        <mxCell id="1" parent="0" />
        <mxCell id="LiRoEZEVJcAlcfNundAd-1" value="&lt;font style=&quot;font-size: 14px&quot;&gt;PROJECT&lt;/font&gt;" style="whiteSpace=wrap;html=1;align=center;" vertex="1" parent="1">
          <mxGeometry x="320" y="330" width="100" height="40" as="geometry" />
        </mxCell>
        <mxCell id="LiRoEZEVJcAlcfNundAd-3" value="&lt;span style=&quot;font-size: 14px&quot;&gt;WORK_PACKAGE&lt;/span&gt;" style="whiteSpace=wrap;html=1;align=center;" vertex="1" parent="1">
          <mxGeometry x="620" y="330" width="140" height="40" as="geometry" />
        </mxCell>
        <mxCell id="LiRoEZEVJcAlcfNundAd-5" value="BE_SUBDIVIDED_INTO" style="shape=rhombus;perimeter=rhombusPerimeter;whiteSpace=wrap;html=1;align=center;" vertex="1" parent="1">
          <mxGeometry x="560" y="410" width="200" height="50" as="geometry" />
        </mxCell>
        <mxCell id="LiRoEZEVJcAlcfNundAd-6" value="&lt;font style=&quot;font-size: 14px&quot;&gt;EMPLOYEE&lt;/font&gt;" style="whiteSpace=wrap;html=1;align=center;" vertex="1" parent="1">
          <mxGeometry x="320" y="180" width="100" height="40" as="geometry" />
        </mxCell>
        <mxCell id="LiRoEZEVJcAlcfNundAd-7" value="&lt;font style=&quot;font-size: 14px&quot;&gt;QUALIFICATION&lt;/font&gt;" style="whiteSpace=wrap;html=1;align=center;" vertex="1" parent="1">
          <mxGeometry x="910" y="330" width="130" height="40" as="geometry" />
        </mxCell>
        <mxCell id="LiRoEZEVJcAlcfNundAd-8" value="&lt;font style=&quot;font-size: 14px&quot;&gt;DEPARTMENT&lt;/font&gt;" style="whiteSpace=wrap;html=1;align=center;" vertex="1" parent="1">
          <mxGeometry x="680" y="180" width="110" height="40" as="geometry" />
        </mxCell>
        <mxCell id="LiRoEZEVJcAlcfNundAd-10" value="&lt;span style=&quot;font-size: 14px&quot;&gt;Proj-#&lt;/span&gt;" style="ellipse;whiteSpace=wrap;html=1;align=center;fontStyle=4;" vertex="1" parent="1">
          <mxGeometry x="200" y="330" width="100" height="40" as="geometry" />
        </mxCell>
        <mxCell id="LiRoEZEVJcAlcfNundAd-11" value="" style="endArrow=none;html=1;rounded=0;exitX=1;exitY=0.5;exitDx=0;exitDy=0;entryX=0;entryY=0.5;entryDx=0;entryDy=0;" edge="1" parent="1" source="LiRoEZEVJcAlcfNundAd-10" target="LiRoEZEVJcAlcfNundAd-1">
          <mxGeometry relative="1" as="geometry">
            <mxPoint x="730" y="370" as="sourcePoint" />
            <mxPoint x="890" y="370" as="targetPoint" />
          </mxGeometry>
        </mxCell>
        <mxCell id="LiRoEZEVJcAlcfNundAd-12" value="&lt;span style=&quot;font-size: 14px&quot;&gt;WP-#&lt;/span&gt;" style="ellipse;whiteSpace=wrap;html=1;align=center;fontStyle=4;" vertex="1" parent="1">
          <mxGeometry x="800" y="410" width="100" height="40" as="geometry" />
        </mxCell>
        <mxCell id="LiRoEZEVJcAlcfNundAd-13" value="" style="endArrow=none;html=1;rounded=0;entryX=0;entryY=0;entryDx=0;entryDy=0;exitX=1;exitY=1;exitDx=0;exitDy=0;" edge="1" parent="1" source="LiRoEZEVJcAlcfNundAd-3" target="LiRoEZEVJcAlcfNundAd-12">
          <mxGeometry relative="1" as="geometry">
            <mxPoint x="720" y="410" as="sourcePoint" />
            <mxPoint x="370" y="390" as="targetPoint" />
          </mxGeometry>
        </mxCell>
        <mxCell id="LiRoEZEVJcAlcfNundAd-14" value="CONSIST_OF" style="shape=rhombus;perimeter=rhombusPerimeter;whiteSpace=wrap;html=1;align=center;" vertex="1" parent="1">
          <mxGeometry x="460" y="320" width="120" height="60" as="geometry" />
        </mxCell>
        <mxCell id="LiRoEZEVJcAlcfNundAd-15" value="" style="shape=link;html=1;rounded=0;exitX=1;exitY=0.5;exitDx=0;exitDy=0;entryX=0;entryY=0.5;entryDx=0;entryDy=0;" edge="1" parent="1" source="LiRoEZEVJcAlcfNundAd-1" target="LiRoEZEVJcAlcfNundAd-14">
          <mxGeometry relative="1" as="geometry">
            <mxPoint x="730" y="410" as="sourcePoint" />
            <mxPoint x="890" y="410" as="targetPoint" />
          </mxGeometry>
        </mxCell>
        <mxCell id="LiRoEZEVJcAlcfNundAd-16" value="1" style="resizable=0;html=1;align=right;verticalAlign=bottom;" connectable="0" vertex="1" parent="LiRoEZEVJcAlcfNundAd-15">
          <mxGeometry x="1" relative="1" as="geometry" />
        </mxCell>
        <mxCell id="LiRoEZEVJcAlcfNundAd-17" value="" style="shape=link;html=1;rounded=0;entryX=1;entryY=0.5;entryDx=0;entryDy=0;exitX=0;exitY=0.5;exitDx=0;exitDy=0;" edge="1" parent="1" source="LiRoEZEVJcAlcfNundAd-3" target="LiRoEZEVJcAlcfNundAd-14">
          <mxGeometry relative="1" as="geometry">
            <mxPoint x="930" y="410" as="sourcePoint" />
            <mxPoint x="1090" y="410" as="targetPoint" />
          </mxGeometry>
        </mxCell>
        <mxCell id="LiRoEZEVJcAlcfNundAd-18" value="N" style="resizable=0;html=1;align=right;verticalAlign=bottom;" connectable="0" vertex="1" parent="LiRoEZEVJcAlcfNundAd-17">
          <mxGeometry x="1" relative="1" as="geometry" />
        </mxCell>
        <mxCell id="LiRoEZEVJcAlcfNundAd-19" value="" style="endArrow=none;html=1;rounded=0;exitX=0;exitY=1;exitDx=0;exitDy=0;entryX=0;entryY=0.5;entryDx=0;entryDy=0;" edge="1" parent="1" source="LiRoEZEVJcAlcfNundAd-3" target="LiRoEZEVJcAlcfNundAd-5">
          <mxGeometry relative="1" as="geometry">
            <mxPoint x="760" y="440" as="sourcePoint" />
            <mxPoint x="920" y="440" as="targetPoint" />
          </mxGeometry>
        </mxCell>
        <mxCell id="LiRoEZEVJcAlcfNundAd-20" value="1" style="resizable=0;html=1;align=right;verticalAlign=bottom;" connectable="0" vertex="1" parent="LiRoEZEVJcAlcfNundAd-19">
          <mxGeometry x="1" relative="1" as="geometry" />
        </mxCell>
        <mxCell id="LiRoEZEVJcAlcfNundAd-21" value="" style="endArrow=none;html=1;rounded=0;entryX=1;entryY=0.5;entryDx=0;entryDy=0;exitX=0.5;exitY=1;exitDx=0;exitDy=0;" edge="1" parent="1" source="LiRoEZEVJcAlcfNundAd-3" target="LiRoEZEVJcAlcfNundAd-5">
          <mxGeometry relative="1" as="geometry">
            <mxPoint x="960" y="410" as="sourcePoint" />
            <mxPoint x="1120" y="410" as="targetPoint" />
          </mxGeometry>
        </mxCell>
        <mxCell id="LiRoEZEVJcAlcfNundAd-22" value="N" style="resizable=0;html=1;align=right;verticalAlign=bottom;" connectable="0" vertex="1" parent="LiRoEZEVJcAlcfNundAd-21">
          <mxGeometry x="1" relative="1" as="geometry">
            <mxPoint x="10" as="offset" />
          </mxGeometry>
        </mxCell>
        <mxCell id="LiRoEZEVJcAlcfNundAd-23" value="&lt;span style=&quot;font-size: 14px&quot;&gt;SI-ID&lt;/span&gt;" style="ellipse;whiteSpace=wrap;html=1;align=center;fontStyle=4;" vertex="1" parent="1">
          <mxGeometry x="250" y="120" width="100" height="40" as="geometry" />
        </mxCell>
        <mxCell id="LiRoEZEVJcAlcfNundAd-24" value="" style="endArrow=none;html=1;rounded=0;exitX=1;exitY=1;exitDx=0;exitDy=0;entryX=0.5;entryY=0;entryDx=0;entryDy=0;" edge="1" parent="1" source="LiRoEZEVJcAlcfNundAd-23" target="LiRoEZEVJcAlcfNundAd-6">
          <mxGeometry relative="1" as="geometry">
            <mxPoint x="305.35533905932743" y="344.14213562373106" as="sourcePoint" />
            <mxPoint x="330" y="360" as="targetPoint" />
          </mxGeometry>
        </mxCell>
        <mxCell id="LiRoEZEVJcAlcfNundAd-26" value="BE_EMPLOYED_TO" style="shape=rhombus;perimeter=rhombusPerimeter;whiteSpace=wrap;html=1;align=center;" vertex="1" parent="1">
          <mxGeometry x="490" y="260" width="160" height="50" as="geometry" />
        </mxCell>
        <mxCell id="LiRoEZEVJcAlcfNundAd-27" value="" style="shape=link;html=1;rounded=0;entryX=0.75;entryY=1;entryDx=0;entryDy=0;exitX=0;exitY=0.5;exitDx=0;exitDy=0;" edge="1" parent="1" source="LiRoEZEVJcAlcfNundAd-26" target="LiRoEZEVJcAlcfNundAd-6">
          <mxGeometry relative="1" as="geometry">
            <mxPoint x="670" y="370" as="sourcePoint" />
            <mxPoint x="830" y="370" as="targetPoint" />
          </mxGeometry>
        </mxCell>
        <mxCell id="LiRoEZEVJcAlcfNundAd-28" value="M" style="resizable=0;html=1;align=left;verticalAlign=bottom;" connectable="0" vertex="1" parent="LiRoEZEVJcAlcfNundAd-27">
          <mxGeometry x="-1" relative="1" as="geometry" />
        </mxCell>
        <mxCell id="LiRoEZEVJcAlcfNundAd-30" value="" style="shape=link;html=1;rounded=0;entryX=1;entryY=0.5;entryDx=0;entryDy=0;exitX=0.5;exitY=0;exitDx=0;exitDy=0;" edge="1" parent="1" source="LiRoEZEVJcAlcfNundAd-3" target="LiRoEZEVJcAlcfNundAd-26">
          <mxGeometry relative="1" as="geometry">
            <mxPoint x="810" y="360" as="sourcePoint" />
            <mxPoint x="970" y="360" as="targetPoint" />
          </mxGeometry>
        </mxCell>
        <mxCell id="LiRoEZEVJcAlcfNundAd-31" value="N" style="resizable=0;html=1;align=right;verticalAlign=bottom;" connectable="0" vertex="1" parent="LiRoEZEVJcAlcfNundAd-30">
          <mxGeometry x="1" relative="1" as="geometry" />
        </mxCell>
        <mxCell id="LiRoEZEVJcAlcfNundAd-32" value="&lt;span style=&quot;font-size: 14px&quot;&gt;SI-ID&lt;/span&gt;" style="ellipse;whiteSpace=wrap;html=1;align=center;fontStyle=4;" vertex="1" parent="1">
          <mxGeometry x="925" y="270" width="100" height="40" as="geometry" />
        </mxCell>
        <mxCell id="LiRoEZEVJcAlcfNundAd-33" value="" style="endArrow=none;html=1;rounded=0;exitX=0.5;exitY=1;exitDx=0;exitDy=0;entryX=0.5;entryY=0;entryDx=0;entryDy=0;" edge="1" parent="1" source="LiRoEZEVJcAlcfNundAd-32" target="LiRoEZEVJcAlcfNundAd-7">
          <mxGeometry relative="1" as="geometry">
            <mxPoint x="465.2327913248439" y="194.19098539472895" as="sourcePoint" />
            <mxPoint x="490" y="230" as="targetPoint" />
          </mxGeometry>
        </mxCell>
        <mxCell id="LiRoEZEVJcAlcfNundAd-34" value="HAVE" style="shape=rhombus;perimeter=rhombusPerimeter;whiteSpace=wrap;html=1;align=center;" vertex="1" parent="1">
          <mxGeometry x="650" y="240" width="80" height="30" as="geometry" />
        </mxCell>
        <mxCell id="LiRoEZEVJcAlcfNundAd-35" value="" style="shape=link;html=1;rounded=0;exitX=1;exitY=1;exitDx=0;exitDy=0;entryX=0;entryY=0.5;entryDx=0;entryDy=0;" edge="1" parent="1" source="LiRoEZEVJcAlcfNundAd-6" target="LiRoEZEVJcAlcfNundAd-34">
          <mxGeometry relative="1" as="geometry">
            <mxPoint x="430" y="360" as="sourcePoint" />
            <mxPoint x="470" y="360" as="targetPoint" />
          </mxGeometry>
        </mxCell>
        <mxCell id="LiRoEZEVJcAlcfNundAd-36" value="1" style="resizable=0;html=1;align=right;verticalAlign=bottom;" connectable="0" vertex="1" parent="LiRoEZEVJcAlcfNundAd-35">
          <mxGeometry x="1" relative="1" as="geometry" />
        </mxCell>
        <mxCell id="LiRoEZEVJcAlcfNundAd-39" value="" style="endArrow=none;html=1;rounded=0;entryX=1;entryY=0.5;entryDx=0;entryDy=0;exitX=0.25;exitY=0;exitDx=0;exitDy=0;" edge="1" parent="1" source="LiRoEZEVJcAlcfNundAd-7" target="LiRoEZEVJcAlcfNundAd-34">
          <mxGeometry relative="1" as="geometry">
            <mxPoint x="700" y="380" as="sourcePoint" />
            <mxPoint x="770" y="445" as="targetPoint" />
          </mxGeometry>
        </mxCell>
        <mxCell id="LiRoEZEVJcAlcfNundAd-40" value="N" style="resizable=0;html=1;align=right;verticalAlign=bottom;" connectable="0" vertex="1" parent="LiRoEZEVJcAlcfNundAd-39">
          <mxGeometry x="1" relative="1" as="geometry">
            <mxPoint x="10" as="offset" />
          </mxGeometry>
        </mxCell>
        <mxCell id="LiRoEZEVJcAlcfNundAd-41" value="&lt;span style=&quot;font-size: 14px&quot;&gt;Dept-ID&lt;/span&gt;" style="ellipse;whiteSpace=wrap;html=1;align=center;fontStyle=4;" vertex="1" parent="1">
          <mxGeometry x="730" y="110" width="100" height="40" as="geometry" />
        </mxCell>
        <mxCell id="LiRoEZEVJcAlcfNundAd-42" value="" style="endArrow=none;html=1;rounded=0;entryX=0;entryY=1;entryDx=0;entryDy=0;exitX=0.5;exitY=0;exitDx=0;exitDy=0;" edge="1" parent="1" source="LiRoEZEVJcAlcfNundAd-8" target="LiRoEZEVJcAlcfNundAd-41">
          <mxGeometry relative="1" as="geometry">
            <mxPoint x="990" y="440" as="sourcePoint" />
            <mxPoint x="1150" y="440" as="targetPoint" />
          </mxGeometry>
        </mxCell>
        <mxCell id="LiRoEZEVJcAlcfNundAd-43" value="BE_ASSIGNED_TO" style="shape=rhombus;perimeter=rhombusPerimeter;whiteSpace=wrap;html=1;align=center;" vertex="1" parent="1">
          <mxGeometry x="470" y="175" width="160" height="50" as="geometry" />
        </mxCell>
        <mxCell id="LiRoEZEVJcAlcfNundAd-46" value="" style="shape=link;html=1;rounded=0;entryX=0;entryY=0.5;entryDx=0;entryDy=0;exitX=1;exitY=0.5;exitDx=0;exitDy=0;" edge="1" parent="1" source="LiRoEZEVJcAlcfNundAd-6" target="LiRoEZEVJcAlcfNundAd-43">
          <mxGeometry relative="1" as="geometry">
            <mxPoint x="630" y="360" as="sourcePoint" />
            <mxPoint x="590" y="360" as="targetPoint" />
          </mxGeometry>
        </mxCell>
        <mxCell id="LiRoEZEVJcAlcfNundAd-47" value="N" style="resizable=0;html=1;align=right;verticalAlign=bottom;" connectable="0" vertex="1" parent="LiRoEZEVJcAlcfNundAd-46">
          <mxGeometry x="1" relative="1" as="geometry" />
        </mxCell>
        <mxCell id="LiRoEZEVJcAlcfNundAd-48" value="" style="endArrow=none;html=1;rounded=0;entryX=1;entryY=0.5;entryDx=0;entryDy=0;exitX=0;exitY=0.5;exitDx=0;exitDy=0;" edge="1" parent="1" source="LiRoEZEVJcAlcfNundAd-8" target="LiRoEZEVJcAlcfNundAd-43">
          <mxGeometry relative="1" as="geometry">
            <mxPoint x="880" y="260" as="sourcePoint" />
            <mxPoint x="1040" y="260" as="targetPoint" />
          </mxGeometry>
        </mxCell>
        <mxCell id="LiRoEZEVJcAlcfNundAd-49" value="1" style="resizable=0;html=1;align=right;verticalAlign=bottom;" connectable="0" vertex="1" parent="LiRoEZEVJcAlcfNundAd-48">
          <mxGeometry x="1" relative="1" as="geometry" />
        </mxCell>
        <mxCell id="LiRoEZEVJcAlcfNundAd-50" value="REQUIRE" style="shape=rhombus;perimeter=rhombusPerimeter;whiteSpace=wrap;html=1;align=center;" vertex="1" parent="1">
          <mxGeometry x="790" y="325" width="80" height="50" as="geometry" />
        </mxCell>
        <mxCell id="LiRoEZEVJcAlcfNundAd-51" value="" style="endArrow=none;html=1;rounded=0;exitX=1;exitY=0.5;exitDx=0;exitDy=0;entryX=0;entryY=0.5;entryDx=0;entryDy=0;" edge="1" parent="1" source="LiRoEZEVJcAlcfNundAd-3" target="LiRoEZEVJcAlcfNundAd-50">
          <mxGeometry relative="1" as="geometry">
            <mxPoint x="930" y="450" as="sourcePoint" />
            <mxPoint x="1090" y="450" as="targetPoint" />
          </mxGeometry>
        </mxCell>
        <mxCell id="LiRoEZEVJcAlcfNundAd-52" value="1" style="resizable=0;html=1;align=right;verticalAlign=bottom;" connectable="0" vertex="1" parent="LiRoEZEVJcAlcfNundAd-51">
          <mxGeometry x="1" relative="1" as="geometry" />
        </mxCell>
        <mxCell id="LiRoEZEVJcAlcfNundAd-53" value="" style="endArrow=none;html=1;rounded=0;entryX=1;entryY=0.5;entryDx=0;entryDy=0;exitX=0;exitY=0.5;exitDx=0;exitDy=0;" edge="1" parent="1" source="LiRoEZEVJcAlcfNundAd-7" target="LiRoEZEVJcAlcfNundAd-50">
          <mxGeometry relative="1" as="geometry">
            <mxPoint x="930" y="450" as="sourcePoint" />
            <mxPoint x="1090" y="450" as="targetPoint" />
          </mxGeometry>
        </mxCell>
        <mxCell id="LiRoEZEVJcAlcfNundAd-54" value="N" style="resizable=0;html=1;align=right;verticalAlign=bottom;" connectable="0" vertex="1" parent="LiRoEZEVJcAlcfNundAd-53">
          <mxGeometry x="1" relative="1" as="geometry">
            <mxPoint x="10" as="offset" />
          </mxGeometry>
        </mxCell>
        <mxCell id="LiRoEZEVJcAlcfNundAd-55" value="HAVE_RESPONSIBILITY" style="shape=rhombus;perimeter=rhombusPerimeter;whiteSpace=wrap;html=1;align=center;" vertex="1" parent="1">
          <mxGeometry x="270" y="260" width="200" height="50" as="geometry" />
        </mxCell>
        <mxCell id="LiRoEZEVJcAlcfNundAd-56" value="" style="endArrow=none;html=1;rounded=0;exitX=0.5;exitY=1;exitDx=0;exitDy=0;entryX=0.5;entryY=0;entryDx=0;entryDy=0;" edge="1" parent="1" source="LiRoEZEVJcAlcfNundAd-6" target="LiRoEZEVJcAlcfNundAd-55">
          <mxGeometry relative="1" as="geometry">
            <mxPoint x="680" y="410" as="sourcePoint" />
            <mxPoint x="840" y="410" as="targetPoint" />
          </mxGeometry>
        </mxCell>
        <mxCell id="LiRoEZEVJcAlcfNundAd-57" value="1" style="resizable=0;html=1;align=right;verticalAlign=bottom;" connectable="0" vertex="1" parent="LiRoEZEVJcAlcfNundAd-56">
          <mxGeometry x="1" relative="1" as="geometry" />
        </mxCell>
        <mxCell id="LiRoEZEVJcAlcfNundAd-58" value="" style="shape=link;html=1;rounded=0;entryX=0.5;entryY=1;entryDx=0;entryDy=0;exitX=0.5;exitY=0;exitDx=0;exitDy=0;" edge="1" parent="1" source="LiRoEZEVJcAlcfNundAd-1" target="LiRoEZEVJcAlcfNundAd-55">
          <mxGeometry relative="1" as="geometry">
            <mxPoint x="680" y="410" as="sourcePoint" />
            <mxPoint x="840" y="410" as="targetPoint" />
          </mxGeometry>
        </mxCell>
        <mxCell id="LiRoEZEVJcAlcfNundAd-59" value="N" style="resizable=0;html=1;align=right;verticalAlign=bottom;" connectable="0" vertex="1" parent="LiRoEZEVJcAlcfNundAd-58">
          <mxGeometry x="1" relative="1" as="geometry">
            <mxPoint x="-10" y="15" as="offset" />
          </mxGeometry>
        </mxCell>
      </root>
    </mxGraphModel>
  </diagram>
</mxfile>
